<?xml version="1.0" standalone="no"?>
<!DOCTYPE svg PUBLIC "-//W3C//DTD SVG 20010904//EN"
 "http://www.w3.org/TR/2001/REC-SVG-20010904/DTD/svg10.dtd">
<svg version="1.0" xmlns="http://www.w3.org/2000/svg"
 width="512.000000pt" height="512.000000pt" viewBox="0 0 512.000000 512.000000"
 preserveAspectRatio="xMidYMid meet">

<g transform="translate(0.000000,512.000000) scale(0.100000,-0.100000)"
fill="#000000" stroke="none">
<path d="M659 4145 c-95 -26 -173 -99 -210 -195 -16 -43 -19 -77 -19 -239 l0
-188 108 -6 c166 -8 264 -50 374 -161 76 -76 133 -188 148 -291 5 -38 10 -193
10 -342 l0 -273 1490 0 1490 0 0 273 c0 149 5 304 10 342 15 103 72 215 148
291 110 111 208 153 375 161 l107 6 0 188 c0 162 -3 196 -19 239 -37 98 -116
170 -215 196 -73 20 -3726 19 -3797 -1z"/>
<path d="M261 3299 c-97 -19 -193 -94 -233 -183 l-23 -51 -3 -685 c-2 -488 0
-701 8 -740 14 -64 64 -147 113 -184 57 -44 107 -60 207 -65 l95 -6 5 -182 5
-183 28 -27 27 -28 350 -3 c300 -2 354 -1 380 13 53 27 60 55 60 245 l0 170
1280 0 1280 0 0 -170 c0 -190 7 -218 60 -245 26 -14 80 -15 380 -13 l350 3 27
28 28 27 5 183 5 182 95 6 c100 5 150 21 207 65 49 37 99 120 113 184 8 39 10
252 8 740 l-3 685 -23 51 c-13 28 -42 69 -65 92 -81 78 -158 102 -332 102
-116 0 -203 -14 -255 -40 -51 -26 -115 -93 -142 -148 -23 -46 -23 -55 -28
-427 -6 -421 -6 -421 -72 -444 -44 -15 -3232 -15 -3276 0 -66 23 -66 23 -72
444 -5 372 -5 381 -28 427 -27 55 -91 122 -142 148 -20 10 -62 23 -95 29 -68
13 -260 13 -324 0z"/>
</g>
</svg>
