<?xml version="1.0" standalone="no"?>
<!DOCTYPE svg PUBLIC "-//W3C//DTD SVG 20010904//EN"
 "http://www.w3.org/TR/2001/REC-SVG-20010904/DTD/svg10.dtd">
<svg version="1.0" xmlns="http://www.w3.org/2000/svg"
 width="512.000000pt" height="512.000000pt" viewBox="0 0 512.000000 512.000000"
 preserveAspectRatio="xMidYMid meet">

<g transform="translate(0.000000,512.000000) scale(0.100000,-0.100000)"
fill="#000000" stroke="none">
<path d="M4183 5095 c-94 -26 -134 -55 -292 -210 l-156 -152 -39 28 c-21 16
-50 29 -63 29 -52 0 -567 -91 -594 -105 -54 -28 -66 -98 -26 -154 43 -60 642
-669 675 -686 42 -21 90 -14 121 19 19 20 33 76 81 314 33 159 56 300 53 313
-3 13 -17 39 -31 58 l-25 33 129 130 c71 71 148 141 172 155 89 53 209 23 264
-64 l23 -38 3 -1097 2 -1098 -2117 -2 -2118 -3 -55 -26 c-202 -96 -250 -358
-95 -514 21 -21 62 -48 91 -62 l52 -23 132 -468 c73 -257 144 -498 157 -536
86 -239 294 -424 541 -480 39 -9 87 -16 106 -16 20 0 36 -2 36 -5 0 -2 -31
-68 -70 -146 -38 -78 -70 -154 -70 -170 0 -90 100 -142 167 -85 17 15 65 98
123 215 l95 191 1105 0 1105 0 95 -191 c58 -117 106 -200 123 -215 67 -57 167
-5 167 85 0 16 -31 92 -70 170 -38 78 -70 144 -70 146 0 3 16 5 36 5 54 0 170
29 238 60 167 74 294 196 375 357 20 38 89 260 178 572 l146 511 52 24 c197
90 243 355 89 510 -62 62 -132 89 -241 94 l-93 4 0 1107 0 1106 -24 58 c-49
117 -128 197 -234 237 -74 28 -181 34 -249 15z m-3224 -3414 c21 -22 41 -79
95 -272 38 -134 75 -256 83 -271 17 -35 47 -55 97 -64 21 -4 52 -19 69 -34 24
-21 30 -34 30 -69 0 -35 -6 -49 -31 -74 -26 -26 -39 -31 -79 -31 -106 1 -227
74 -274 166 -23 44 -169 545 -169 578 0 28 26 77 47 89 10 6 38 11 61 11 36 0
49 -5 71 -29z"/>
<path d="M2915 3928 c-141 -142 -155 -165 -130 -224 17 -42 51 -64 99 -64 37
0 47 8 163 123 69 67 131 135 140 151 34 66 -20 146 -99 146 -40 0 -47 -6
-173 -132z"/>
<path d="M2403 3834 c-47 -23 -259 -245 -265 -277 -16 -82 47 -144 130 -129
18 3 70 47 154 131 102 102 128 133 133 162 9 46 -14 93 -55 114 -37 19 -57
19 -97 -1z"/>
<path d="M2713 3298 c-158 -156 -169 -176 -138 -243 18 -37 51 -55 102 -55 33
0 48 11 168 133 81 80 134 142 137 157 12 70 -36 130 -105 130 -38 0 -47 -7
-164 -122z"/>
</g>
</svg>
