<?xml version="1.0" standalone="no"?>
<!DOCTYPE svg PUBLIC "-//W3C//DTD SVG 20010904//EN"
 "http://www.w3.org/TR/2001/REC-SVG-20010904/DTD/svg10.dtd">
<svg version="1.0" xmlns="http://www.w3.org/2000/svg"
 width="512.000000pt" height="512.000000pt" viewBox="0 0 512.000000 512.000000"
 preserveAspectRatio="xMidYMid meet">

<g transform="translate(0.000000,512.000000) scale(0.100000,-0.100000)"
fill="#000000" stroke="none">
<path d="M1302 4239 c-100 -17 -194 -83 -247 -174 -13 -22 -91 -227 -174 -455
-82 -228 -154 -426 -159 -440 -8 -23 -10 -20 -26 32 -28 99 -25 98 -328 98
-278 0 -302 -4 -325 -52 -50 -103 -53 -242 -7 -359 27 -66 42 -69 313 -69 133
0 241 -4 241 -8 0 -5 -11 -14 -24 -20 -46 -21 -105 -83 -123 -130 -17 -44 -18
-100 -18 -877 0 -775 1 -832 18 -856 35 -53 45 -54 387 -54 342 0 352 1 387
54 16 23 18 59 21 323 l3 298 1319 0 1319 0 3 -297 c3 -265 5 -301 21 -324 35
-53 45 -54 387 -54 342 0 352 1 387 54 17 24 18 81 18 856 0 777 -1 833 -18
877 -18 47 -77 109 -123 130 -13 6 -24 15 -24 20 0 4 108 8 241 8 271 0 286 3
313 69 46 117 43 256 -7 359 -23 48 -47 52 -325 52 -303 0 -300 1 -328 -98
l-17 -57 -12 35 c-156 436 -311 854 -330 885 -54 92 -143 154 -250 174 -72 13
-2432 13 -2513 0z m2585 -904 c95 -264 176 -490 179 -502 l6 -23 -1511 0
c-939 0 -1511 4 -1511 9 0 8 305 859 349 974 l11 27 1151 -2 1152 -3 174 -480z
m-2315 -884 c61 -42 83 -85 83 -162 0 -60 -3 -71 -31 -106 -63 -78 -63 -78
-384 -78 -157 0 -297 3 -312 8 -43 12 -95 63 -114 112 -35 93 3 185 97 233 43
22 49 23 335 20 288 -3 291 -3 326 -27z m2638 7 c93 -48 131 -140 96 -233 -19
-49 -71 -100 -114 -112 -15 -5 -155 -8 -312 -8 -321 0 -321 0 -384 78 -28 35
-31 46 -31 106 0 55 4 74 25 103 24 35 65 67 105 80 11 3 144 6 295 7 267 1
277 0 320 -21z"/>
</g>
</svg>
